<svg width="16" height="16" viewBox="0 0 16 16" fill="currentColor" xmlns="http://www.w3.org/2000/svg">
  <path fill-rule="evenodd" clip-rule="evenodd"
    d="M0.97 9c0-.276.224-.5.5-.5H14.53c.276 0 .5.224.5.5v2.6429c0 .989-.563 1.8358-1.314 2.4159-.752.5818-1.745.9411-2.73.9411H5.014c-.986 0-1.979-.3593-2.73-.9411C1.533 13.4787.97 12.6319.97 11.6429V9Zm1.03.5v2.1429c0 .589.339 1.1708.926 1.6247.586.4524 1.366.7324 2.12.7324h5.909c.754 0 1.534-.28 2.12-.7324.587-.4539.926-1.0357.926-1.6247V9.5H2Z"
  />
  <path fill-rule="evenodd" clip-rule="evenodd"
    d="M8 3.5C8 2.11929 9.11929 1 10.5 1C11.8807 1 13 2.11929 13 3.5V8.5C13 8.77614 12.7761 9 12.5 9C12.2239 9 12 8.77614 12 8.5V3.5C12 2.67157 11.3284 2 10.5 2C9.67157 2 9 2.67157 9 3.5C9 3.77614 8.77614 4 8.5 4C8.22386 4 8 3.77614 8 3.5Z"
  />
  <path fill-rule="evenodd" clip-rule="evenodd"
    d="M7.08535 5H9.91465C9.70873 4.4174 9.15311 4 8.5 4C7.84689 4 7.29127 4.4174 7.08535 5ZM6 5.5C6 4.11929 7.11929 3 8.5 3C9.88071 3 11 4.11929 11 5.5C11 5.77614 10.7761 6 10.5 6H6.5C6.22386 6 6 5.77614 6 5.5Z"
  />
</svg>
