<svg width="16" height="16" viewBox="0 0 16 16" fill="currentColor" xmlns="http://www.w3.org/2000/svg">
  <path fill-rule="evenodd" clip-rule="evenodd"
    d="M4.7 2.9C3.99358 2.9 3.33518 3.11632 2.84244 3.48961C2.34938 3.86314 2 4.41592 2 5.06667V8.45594C1.4018 8.86258 1 9.51114 1 10.2778V14.5C1 14.7761 1.22386 15 1.5 15C1.77614 15 2 14.7761 2 14.5V12.95H14V14.5C14 14.7761 14.2239 15 14.5 15C14.7761 15 15 14.7761 15 14.5V10.2778C15 9.51114 14.5982 8.86258 14 8.45594V5.06667C14 4.41592 13.6506 3.86314 13.1576 3.48961C12.6648 3.11632 12.0064 2.9 11.3 2.9H4.7ZM14 12V10.2778C14 9.62582 13.3854 9 12.5 9H3.5C2.61458 9 2 9.62582 2 10.2778V12H14ZM13 7.94639V5.06667C13 4.79693 12.8569 4.51639 12.5537 4.2867C12.2502 4.05677 11.8086 3.9 11.3 3.9H4.7C4.19139 3.9 3.7498 4.05677 3.44629 4.2867C3.14311 4.51639 3 4.79693 3 5.06667V7.94639C3.16279 7.9159 3.33018 7.9 3.5 7.9V6.5C3.5 6.22386 3.72386 6 4 6H7C7.27614 6 7.5 6.22386 7.5 6.5V7.9H8.5V6.5C8.5 6.22386 8.72386 6 9 6H12C12.2761 6 12.5 6.22386 12.5 6.5V7.9C12.6698 7.9 12.8372 7.9159 13 7.94639ZM11.5 7.9V7H9.5V7.9H11.5ZM6.5 7.9H4.5V7H6.5V7.9Z"
  />
</svg>
