<svg width="182" height="214" viewBox="0 0 182 214" fill="none" xmlns="http://www.w3.org/2000/svg">
<path fill-rule="evenodd" clip-rule="evenodd" d="M110.303 35.6666C110.303 15.9685 126.353 0 146.151 0C165.95 0 182 15.9685 182 35.6666C182 55.3648 165.95 71.3334 146.151 71.3334C136.154 71.3334 127.12 67.2598 120.624 60.7061L70.9982 94.4757C71.4564 96.7548 71.6973 99.1087 71.6973 101.513C71.6973 106.275 70.7552 110.826 69.0485 114.986L123.463 150.718C129.64 145.692 137.542 142.666 146.151 142.666C165.95 142.666 182 158.635 182 178.334C182 198.031 165.95 214 146.151 214C126.353 214 110.303 198.031 110.303 178.334C110.303 173.174 111.408 168.263 113.393 163.829L59.4184 128.386C53.1222 133.855 44.8748 137.179 35.8484 137.179C16.0499 137.179 0 121.211 0 101.513C0 81.8147 16.0499 65.8462 35.8484 65.8462C47.2333 65.8462 57.3678 71.1256 63.9296 79.3424L112.025 46.6137C110.907 43.1594 110.303 39.4787 110.303 35.6666Z" fill="#C2CBD9"/>
</svg>
