<svg width="15" height="15" viewBox="0 0 15 15" fill="currentColor" xmlns="http://www.w3.org/2000/svg">
  <path fill-rule="evenodd" clip-rule="evenodd"
    d="M2.05 2.5c0-.276 0.224-.5 0.5-.5H6c.276 0 .5.224.5.5s-.224.5-.5.5H3.02v3.01c0 .276-.224.5-.5.5s-.5-.224-.5-.5V2.5Zm1.96 2.0c0-.276.224-.5.5-.5h7.02c.276 0 .5.224.5.5v7.02c0 .276-.224.5-.5.5H4.51a.5.5 0 0 1-.5-.5V4.5Zm1.0.55v5.95h5.95V5.05H5.01ZM2.05 13.48c0 .276.224.5.5.5H6c.276 0 .5-.224.5-.5s-.224-.5-.5-.5H3.02v-3.0c0-.276-.224-.5-.5-.5s-.5.224-.5.5v3.0Zm12.4-.03c0 .276-.224.5-.5.5H10.5c-.276 0-.5-.224-.5-.5s.224-.5.5-.5h3.0V10c0-.276.224-.5.5-.5s.5.224.5.5v3.45ZM13.48 2.5c0-.276-.224-.5-.5-.5H10c-.276 0-.5.224-.5.5s.224.5.5.5h3v3.0c0 .276.224.5.5.5s.5-.224.5-.5V2.5Z"
  />
</svg>
