<svg xmlns="http://www.w3.org/2000/svg" viewBox="0 0 24 24" fill="currentColor">
  <path d="M8 13a1 1 0 1 0 0 2h1a1 1 0 1 0 0-2H8Zm6 1a1 1 0 0 1 1-1h1a1 1 0 1 1 0 2h-1a1 1 0 0 1-1-1Z"/>
  <path fill-rule="evenodd" clip-rule="evenodd"
    d="M5.131 5.901A4 4 0 0 1 8.977 3h6.046a4 4 0 0 1 3.846 2.901L19.754 9H21a1 1 0 1 1 0 2h-.535c.34.588.535 1.271.535 2v4a2 2 0 0 1-1 1.732V20a1 1 0 0 1-1 1h-2a1 1 0 0 1-1-1v-1H8v1a1 1 0 0 1-1 1H5a1 1 0 0 1-1-1v-1.268A2 2 0 0 1 3 17v-4c0-.729.195-1.412.535-2H3a1 1 0 1 1 0-2h1.246l.885-3.099ZM6.326 9l.728-2.55A2 2 0 0 1 8.977 5h6.046a2 2 0 0 1 1.923 1.45L17.674 9H6.326ZM7 11a2 2 0 0 0-2 2v4h14v-4a2 2 0 0 0-2-2H7Z"
  />
  <path d="M8 10.5h8a.5.5 0 0 1 0 1H8a.5.5 0 0 1 0-1Z"/>
</svg>
