<svg width="24" height="24" viewBox="0 0 24 24" fill="currentColor" xmlns="http://www.w3.org/2000/svg">
  <path fill-rule="evenodd" clip-rule="evenodd" d="M3 7.5C3 6.25736 4.00736 5.25 5.25 5.25H18.75C19.9926 5.25 21 6.25736 21 7.5V18.75C21 19.9926 19.9926 21 18.75 21H5.25C4.00736 21 3 19.9926 3 18.75V7.5ZM5.25 6.75C4.83579 6.75 4.5 7.08579 4.5 7.5V18.75C4.5 19.1642 4.83579 19.5 5.25 19.5H18.75C19.1642 19.5 19.5 19.1642 19.5 18.75V7.5C19.5 7.08579 19.1642 6.75 18.75 6.75H5.25Z"/>
  <path fill-rule="evenodd" clip-rule="evenodd" d="M19.5 11.25H4.5V9.75H19.5V11.25Z"/>
  <path fill-rule="evenodd" clip-rule="evenodd" d="M7.5 3C7.91421 3 8.25 3.33579 8.25 3.75L8.25 7.5C8.25 7.91421 7.91421 8.25 7.5 8.25C7.08579 8.25 6.75 7.91421 6.75 7.5L6.75 3.75C6.75 3.33579 7.08579 3 7.5 3Z"/>
  <path fill-rule="evenodd" clip-rule="evenodd" d="M12 3C12.4142 3 12.75 3.33579 12.75 3.75V7.5C12.75 7.91421 12.4142 8.25 12 8.25C11.5858 8.25 11.25 7.91421 11.25 7.5V3.75C11.25 3.33579 11.5858 3 12 3Z"/>
  <path fill-rule="evenodd" clip-rule="evenodd" d="M16.5 3C16.9142 3 17.25 3.33579 17.25 3.75V7.5C17.25 7.91421 16.9142 8.25 16.5 8.25C16.0858 8.25 15.75 7.91421 15.75 7.5V3.75C15.75 3.33579 16.0858 3 16.5 3Z"/>
</svg>
