<svg width="24" height="24" viewBox="0 0 24 24" fill="currentColor" xmlns="http://www.w3.org/2000/svg">
  <path fill-rule="evenodd" clip-rule="evenodd"
    d="M4.06 8.16A3.001 3.001 0 0 0 2 11v5c0 1.306.835 2.418 2 2.83V20a1 1 0 1 0 2 0v-1h12v1a1 1 0 1 0 2 0v-1.17A3.001 3.001 0 0 0 22 16v-5a3.001 3.001 0 0 0-2.06-2.85A6.001 6.001 0 0 0 14 3h-4a6.001 6.001 0 0 0-5.94 5.16Zm2.02.05A3.001 3.001 0 0 1 8 11v1h8v-1c0-1.276.797-2.366 1.92-2.8A4.001 4.001 0 0 0 14 5h-4a4.001 4.001 0 0 0-3.92 3.21ZM5 10a1 1 0 0 0-1 1v5a1 1 0 0 0 1 1h14a1 1 0 0 0 1-1v-5a1 1 0 1 0-2 0v2a1 1 0 0 1-1 1H7a1 1 0 0 1-1-1v-2a1 1 0 0 0-1-1Z"/>
</svg>
